<?xml version="1.0" encoding="UTF-8"?><svg id="a" xmlns="http://www.w3.org/2000/svg" xmlns:xlink="http://www.w3.org/1999/xlink" viewBox="0 0 1080.04 1080"><defs><style>.c{fill:#fff;}.d{clip-path:url(#b);}.e{fill:none;}</style><clipPath id="b"><rect class="e" x=".04" width="1080" height="1080"/></clipPath></defs><g class="d"><path d="M540,1080c298.24,0,540-241.76,540-540S838.28,0,540,0,0,241.77,0,540s241.77,540,540,540"/></g><path class="c" d="M863.71,610.99l-83.51-196.3c-17.78-49.3-60.2-84.86-111.14-94.72,21.51-12.7,55.42-42.88,40.93-98.3-1.64-5.98-8.52-9.56-14.34-7.32l-241.71,90.38c-156.56,56.32-199.43,194.36-199.43,385.43v97.11c0,21.21,17.03,38.24,38.24,38.24h282.34c28.38,0,46.91-29.88,34.06-55.28l-48.7-97.7v-.9c-54.53-4.18-101.13-36.6-124.59-83.06-1.94-3.73-1.2-8.37,1.79-11.2l14.49-14.49c4.63-4.63,12.7-3.14,15.39,2.99,17.78,40.19,57.66,68.57,104.57,68.57,20.47,0,39.44-6.13,55.87-15.84l54.97,76.34c7.17,10.16,18.82,15.98,31.07,15.98h60.05c10.16,0,19.87-4.03,27.04-11.2l54.23-47.66c10.61-10.91,13.89-27.04,8.37-41.08Zm-217.21-129.67c-15.83,0-28.68-12.85-28.68-28.68s12.85-28.68,28.68-28.68,28.68,12.85,28.68,28.68-12.85,28.68-28.68,28.68Z"/></svg>