<svg width="340" height="340" xmlns="http://www.w3.org/2000/svg" xmlns:xlink="http://www.w3.org/1999/xlink" overflow="hidden"><defs><clipPath id="clip0"><rect x="0" y="0" width="340" height="340"/></clipPath></defs><g clip-path="url(#clip0)"><rect x="0" y="0" width="340" height="340" fill="#FFFFFF" fill-opacity="0"/><path d="M170 340C263.89 340 340 263.89 340 170 340 76.1097 263.903 0 170 0 76.0971 0 0 76.1128 0 170 0 263.887 76.1128 340 170 340" fill="#166731" fill-rule="evenodd"/><path d="M197.314 147.98C199.356 149.609 201.889 150.499 204.501 150.505L227.5 150.505C233.852 150.4 238.916 145.165 238.81 138.813 238.708 132.609 233.704 127.605 227.5 127.502L208.545 127.502 182.929 107.009C178.631 103.546 172.473 103.64 168.283 107.233L128.043 141.733C125.31 144.081 123.832 147.571 124.047 151.168 124.239 154.767 126.121 158.065 129.122 160.06L158.501 179.632 158.501 219.498C158.501 225.849 163.649 230.997 170 230.997 176.351 230.997 181.499 225.849 181.499 219.498L181.499 173.495C181.495 169.652 179.575 166.063 176.379 163.927L161.512 153.999 182.443 136.069ZM101.001 233.873C86.7175 233.861 75.1487 222.272 75.161 207.988 75.1733 193.705 86.7617 182.135 101.045 182.148 115.328 182.16 126.897 193.749 126.885 208.032 126.872 222.299 115.311 233.861 101.045 233.873L101.001 233.873M101.001 161.995C75.5953 161.995 55 182.591 55 207.998 55 233.404 75.5953 254 101.001 254 126.406 254 147.001 233.404 147.001 207.998L147.001 207.998C147.015 182.607 126.444 162.011 101.054 161.995L101.001 161.995M198.75 104.503C208.277 104.503 216.001 96.7788 216.001 87.2513 216.001 77.7238 208.277 70 198.75 70 189.223 70 181.499 77.7238 181.499 87.2513 181.499 87.2544 181.499 87.2576 181.499 87.2607 181.499 96.7883 189.223 104.512 198.75 104.512M238.999 233.873C224.716 233.861 213.147 222.272 213.16 207.988 213.172 193.705 224.76 182.135 239.044 182.148 253.327 182.16 264.896 193.749 264.883 208.032 264.871 222.299 253.309 233.861 239.044 233.873L238.999 233.873M238.999 161.995C213.594 161.995 192.999 182.591 192.999 207.998 192.999 233.404 213.594 254 238.999 254 264.405 254 285 233.404 285 207.998L285 207.998C285.014 182.607 264.443 162.011 239.053 161.995L238.999 161.995" fill="#FFFFFF" fill-rule="evenodd"/></g></svg>