<svg xmlns="http://www.w3.org/2000/svg" width="260" height="20" viewBox="0 0 260 20" version="1.1" aria-hidden="true" focusable="false"><path d="M1.158 19.083L0 .102A.095.095 0 01.098 0c2.294.12 7.29 3.989 10.117 3.989C13.042 3.989 18.19.01 20.43.01c2.242 0 7.351 3.978 10.22 3.978 2.867 0 7.818-3.857 10.112-3.978a.094.094 0 01.099.102l-1.16 18.97a.189.189 0 01-.188.174H1.347a.189.189 0 01-.189-.174m255.687.137a4.43 4.43 0 001.597-1.053 4.758 4.758 0 001.052-1.706 6.85 6.85 0 00.378-2.343 6.977 6.977 0 00-.321-2.17 4.747 4.747 0 00-.962-1.698 4.434 4.434 0 00-1.581-1.11 6.038 6.038 0 00-4.299 0 4.442 4.442 0 00-1.588 1.099 4.796 4.796 0 00-.989 1.705 6.792 6.792 0 00-.343 2.22c0 1.728.437 3.062 1.313 4.003.875.94 2.112 1.411 3.71 1.411a5.71 5.71 0 002.04-.35m-4.112-2.435a4.811 4.811 0 01-.638-2.641 4.608 4.608 0 01.656-2.619 2.702 2.702 0 014.151 0 4.6 4.6 0 01.657 2.642 4.683 4.683 0 01-.657 2.641 2.325 2.325 0 01-2.071.974c-.97 0-1.664-.329-2.09-.981m-8.948-5.99v5.14c0 1.167.223 2.038.668 2.623.445.585 1.226.872 2.355.872a6.43 6.43 0 002.037-.313l-.332-1.668c-.195.064-.396.11-.6.136a4.906 4.906 0 01-.637.041 1.23 1.23 0 01-.951-.355 1.657 1.657 0 01-.325-1.132V10.82h2.532V9.053h-2.532V6.306H243.8v2.747h-1.611v1.766h1.611zm-7.125 0v5.14c0 1.167.223 2.038.668 2.623.446.585 1.23.872 2.355.872.693.005 1.382-.1 2.042-.313l-.336-1.668a3.25 3.25 0 01-.596.136 4.94 4.94 0 01-.638.041 1.23 1.23 0 01-.951-.355 1.638 1.638 0 01-.325-1.132V10.82h2.532V9.053h-2.532V6.306h-2.219v2.747h-1.592v1.766h1.592zm-5.415 8.439h2.238V9.067h-2.238v10.19zm-.037-11.793h2.313V5.245h-2.313v2.22zm-4.781 11.793h2.264V9.067h-2.264v10.19zm-.038-11.793h2.313V5.245h-2.313v2.22zm-4.789 11.793h2.238V5.245h-2.238v14.012zM205.82 9.067v10.19h2.219v-6.083a2.366 2.366 0 01.204-.97 2.7 2.7 0 01.558-.815c.245-.243.536-.433.857-.559a2.774 2.774 0 011.086-.207c.498-.037.986.147 1.336.502.298.332.45.909.45 1.735v6.397h2.237v-6.751c0-2.516-1.138-3.774-3.415-3.774a4.024 4.024 0 00-1.834.43c-.616.329-1.144.8-1.54 1.374v-1.49l-2.158.022zm-9.457 4.103a3.29 3.29 0 01.755-1.974 2.381 2.381 0 011.887-.736c.863 0 1.492.243 1.887.729.42.572.628 1.272.588 1.98h-5.117zm4.981 3.08c-.088.463-.338.88-.705 1.176a2.555 2.555 0 01-1.589.412 2.404 2.404 0 01-2.023-.86 3.774 3.774 0 01-.705-2.265h7.32v-.98a7.128 7.128 0 00-.275-2.035 4.257 4.257 0 00-.845-1.57 3.804 3.804 0 00-1.43-1.019 5.283 5.283 0 00-2.042-.377 5.404 5.404 0 00-2.011.377 4.332 4.332 0 00-1.57 1.06 4.819 4.819 0 00-1.019 1.718 6.853 6.853 0 00-.377 2.336c0 1.698.422 3.019 1.268 3.95.845.933 2.075 1.404 3.698 1.404 1.348 0 2.382-.29 3.102-.871a3.883 3.883 0 001.35-2.464l-2.147.007zm-23.94-7.17v10.188h2.246v-6.113a2.389 2.389 0 01.276-1.197 2.506 2.506 0 011.453-1.208c.227-.077.465-.12.705-.127a1.35 1.35 0 011.11.49c.267.329.4.929.4 1.804v6.34h2.237v-6.144c0-.31.053-.618.159-.91.1-.292.257-.562.46-.795.21-.24.466-.435.755-.57a2.4 2.4 0 011.041-.215c.226-.003.451.034.664.11a.944.944 0 01.483.376c.141.232.237.488.283.755.074.408.107.823.099 1.238v6.12h2.237v-6.697c0-1.321-.251-2.282-.754-2.883-.504-.602-1.301-.902-2.393-.902-1.32 0-2.433.615-3.336 1.845a2.702 2.702 0 00-.973-1.313 2.947 2.947 0 00-1.687-.521 4.766 4.766 0 00-.785.06 3.85 3.85 0 00-2.513 1.706V9.045l-2.166.034zm-5.237 10.165c.604-.23 1.15-.59 1.6-1.053a4.804 4.804 0 001.05-1.705 6.77 6.77 0 00.376-2.344 6.977 6.977 0 00-.324-2.17 4.638 4.638 0 00-.962-1.698 4.419 4.419 0 00-1.578-1.109 6.038 6.038 0 00-4.298 0 4.377 4.377 0 00-1.588 1.098 4.804 4.804 0 00-.993 1.706 6.792 6.792 0 00-.343 2.219c0 1.728.437 3.063 1.313 4.003.875.941 2.112 1.412 3.71 1.412a5.694 5.694 0 002.04-.351m-4.109-2.434a4.811 4.811 0 01-.637-2.642 4.608 4.608 0 01.656-2.619 2.698 2.698 0 014.151 0c.48.795.71 1.715.657 2.642a4.683 4.683 0 01-.657 2.642 2.32 2.32 0 01-2.072.973c-.966 0-1.664-.328-2.086-.981m-13.944-7.732v6.77c0 1.258.252 2.2.755 2.826.517.615 1.374.92 2.562.92a3.774 3.774 0 001.766-.43 4.657 4.657 0 001.532-1.373v1.49h2.178V9.118h-2.238V15.2c.005.367-.075.73-.234 1.06a2.702 2.702 0 01-.611.804 2.566 2.566 0 01-.853.51 2.766 2.766 0 01-.951.177 1.645 1.645 0 01-1.287-.472c-.28-.313-.419-.894-.419-1.747V9.117l-2.2-.015zm-13.185 5.924c.101 1.585.663 2.754 1.687 3.506 1.024.752 2.43 1.13 4.22 1.132a7.457 7.457 0 002.305-.324 4.906 4.906 0 001.656-.883 3.49 3.49 0 00.993-1.317 4.12 4.12 0 00.324-1.638c0-1.243-.347-2.194-1.041-2.853-.695-.66-1.78-1.127-3.257-1.404l-1.943-.377a3.774 3.774 0 01-1.755-.706 1.75 1.75 0 01-.502-1.373c0-.247.05-.49.147-.717a1.51 1.51 0 01.49-.608c.272-.195.578-.335.903-.411.46-.108.931-.157 1.404-.147.98 0 1.696.188 2.147.566.5.463.834 1.076.954 1.747l2.234-.351a5.502 5.502 0 00-.43-1.472 3.642 3.642 0 00-.92-1.249 4.626 4.626 0 00-1.593-.872 7.619 7.619 0 00-2.43-.332 8.468 8.468 0 00-2.11.246 4.985 4.985 0 00-1.679.754 3.48 3.48 0 00-1.51 2.993 4.528 4.528 0 00.284 1.698c.182.455.472.859.845 1.177.409.341.877.604 1.381.774.615.214 1.246.378 1.887.49l1.785.336c.379.058.748.167 1.098.325.258.114.49.277.687.48.162.17.282.375.35.6.068.211.103.433.103.656 0 .29-.047.578-.14.853a1.62 1.62 0 01-.472.698c-.259.215-.56.374-.883.468-.438.13-.894.189-1.35.177-1.103 0-1.93-.209-2.484-.626a2.758 2.758 0 01-.992-2.004l-2.393-.012zm-7.385-.471h5.808V12.34h-5.808v2.215zm-10.46 1.57c.015.582.173 1.153.46 1.66.261.429.62.788 1.05 1.049.453.267.948.456 1.464.558a8.519 8.519 0 001.694.167c1.442 0 2.515-.285 3.219-.853a2.747 2.747 0 001.06-2.246 4.075 4.075 0 00-.158-1.177 2.14 2.14 0 00-.559-.932 3.23 3.23 0 00-1.079-.68 8.396 8.396 0 00-1.698-.448l-1.276-.22a9.583 9.583 0 01-.883-.195 2.004 2.004 0 01-.558-.234.702.702 0 01-.283-.355 1.6 1.6 0 01-.08-.547 1.2 1.2 0 01.087-.434.947.947 0 01.336-.378c.201-.134.423-.234.657-.294a4.08 4.08 0 011.06-.117c.56-.048 1.12.085 1.6.377.35.294.6.69.714 1.132l2.003-.275c-.083-.39-.21-.77-.377-1.132a2.838 2.838 0 00-.755-.94 3.525 3.525 0 00-1.275-.649c-.64-.17-1.3-.249-1.963-.234a6.34 6.34 0 00-1.698.215 4.174 4.174 0 00-1.332.62 2.932 2.932 0 00-.875.98 2.67 2.67 0 00-.313 1.283 2.94 2.94 0 00.313 1.465c.228.374.554.68.943.883.49.251 1.011.433 1.551.54.615.128 1.328.267 2.14.41.459.032.895.21 1.245.51.204.24.311.549.302.864.02.39-.166.764-.49.981a2.936 2.936 0 01-1.608.332 5.898 5.898 0 01-.92-.068 2.053 2.053 0 01-.756-.264 1.774 1.774 0 01-.54-.52 1.86 1.86 0 01-.27-.834h-2.152zm-4.204 3.132h2.238V9.067h-2.238v10.19zm-.037-11.793h2.301V5.245h-2.313l.012 2.22zm-4.574 11.793h2.14v-6.378a7.09 7.09 0 00-.185-1.656 3.083 3.083 0 00-.66-1.306 3.14 3.14 0 00-1.265-.864 5.555 5.555 0 00-2.011-.313 5.457 5.457 0 00-2.962.686 3.09 3.09 0 00-1.355 2.178l2.041.215a1.65 1.65 0 01.657-1.019 2.664 2.664 0 011.54-.355 2.294 2.294 0 011.464.442c.377.294.558.826.558 1.6v.43l-1.51.08a16.82 16.82 0 00-1.886.188 5.996 5.996 0 00-1.698.517 3.294 3.294 0 00-1.226 1.03 2.894 2.894 0 00-.465 1.71c-.011.469.079.935.265 1.366.164.368.412.694.724.95.323.256.694.446 1.09.559.44.128.897.192 1.355.189a4.102 4.102 0 002-.453 4.683 4.683 0 001.393-1.132l-.004 1.336zm-.038-4.827v.589a2.823 2.823 0 01-.705 2.019c-.47.503-1.198.754-2.182.754a1.83 1.83 0 01-1.245-.377 1.325 1.325 0 01-.422-1.038 2.2 2.2 0 01.109-.698c.084-.23.239-.43.442-.57a2.76 2.76 0 01.95-.4 8.985 8.985 0 011.62-.218l1.433-.06zm-17.54-5.377v10.189h2.22v-6.068a2.366 2.366 0 01.203-.97 2.72 2.72 0 01.559-.815c.244-.243.536-.433.856-.559a2.774 2.774 0 011.087-.207 1.7 1.7 0 011.336.502c.302.332.45.909.45 1.735v6.397h2.237v-6.751c0-2.516-1.139-3.774-3.415-3.774a4.024 4.024 0 00-1.834.43c-.616.329-1.144.8-1.54 1.374v-1.49l-2.158.007zm-4.807 10.189h2.238V9.052h-2.238v10.19zM91.86 7.449h2.314V5.23H91.86v2.22zm-10.988 8.68c.014.582.172 1.153.46 1.66.26.428.62.788 1.05 1.049.45.267.945.456 1.46.558a8.56 8.56 0 001.698.166c1.441 0 2.514-.284 3.218-.853a2.747 2.747 0 001.06-2.245 4.075 4.075 0 00-.158-1.177 2.177 2.177 0 00-.558-.932 3.23 3.23 0 00-1.08-.68 8.536 8.536 0 00-1.697-.449l-1.276-.218a9.583 9.583 0 01-.883-.197 1.955 1.955 0 01-.558-.234.683.683 0 01-.283-.354 1.6 1.6 0 01-.08-.548 1.2 1.2 0 01.087-.433.947.947 0 01.336-.378c.2-.134.423-.234.657-.294a4.08 4.08 0 011.06-.117 2.642 2.642 0 011.596.377c.352.293.602.69.717 1.132l2.004-.275a5.63 5.63 0 00-.377-1.132 2.838 2.838 0 00-.755-.94c-.377-.3-.81-.521-1.276-.649a7.02 7.02 0 00-1.962-.234 6.34 6.34 0 00-1.698.215 4.15 4.15 0 00-1.343.627 2.932 2.932 0 00-.876.98c-.21.395-.318.837-.313 1.284a2.94 2.94 0 00.313 1.464c.228.375.554.68.943.883.49.252 1.012.433 1.551.54.616.128 1.325.267 2.136.41.46.032.899.21 1.25.51.202.242.309.55.301.864a1.11 1.11 0 01-.49.982 2.943 2.943 0 01-1.608.332 5.981 5.981 0 01-.924-.068 2.034 2.034 0 01-.755-.264c-.216-.133-.4-.31-.54-.521a1.91 1.91 0 01-.275-.834l-2.132-.008zm-6.91-7.084v10.189h2.22v-5.962a2.332 2.332 0 01.656-1.608c.227-.23.498-.414.796-.54a2.675 2.675 0 011.098-.207c.181 0 .359 0 .528.019.16.013.317.04.472.08l.257-2.042a4.15 4.15 0 00-.442-.057c-.15 0-.34-.023-.558-.023-.56 0-1.11.15-1.593.434a3.85 3.85 0 00-1.275 1.234v-1.51l-2.159-.007zm-4.588 10.189h2.135v-6.377a6.894 6.894 0 00-.184-1.657A2.989 2.989 0 0069.4 9.03a5.555 5.555 0 00-2.011-.313 5.472 5.472 0 00-2.963.687 3.102 3.102 0 00-1.354 2.177l2.041.215a1.66 1.66 0 01.657-1.019 2.687 2.687 0 011.543-.354 2.29 2.29 0 011.46.441c.378.294.56.827.56 1.6v.43l-1.51.08a16.66 16.66 0 00-1.887.188 5.92 5.92 0 00-1.698.517c-.489.236-.91.59-1.227 1.03a2.898 2.898 0 00-.471 1.717c-.012.47.078.936.264 1.366.165.37.414.696.728.951a3.09 3.09 0 001.087.559c.44.128.896.192 1.355.189a4.09 4.09 0 002-.453 4.747 4.747 0 001.396-1.132l.004 1.328zm-.042-4.826v.588a2.81 2.81 0 01-.706 2.02c-.47.502-1.196.754-2.177.754a1.819 1.819 0 01-1.245-.378 1.31 1.31 0 01-.423-1.037 2.2 2.2 0 01.106-.698c.084-.232.239-.43.441-.57.29-.193.614-.329.955-.4a8.985 8.985 0 011.619-.22l1.43-.06zM50.215 5.245l5.34 14.012h2.264l5.317-14.012h-2.532l-3.902 10.793-3.845-10.793h-2.642z" fill-rule="nonzero" fill="#07477F"></path></svg>